<?xml version="1.0" standalone="no"?>
<!DOCTYPE svg PUBLIC "-//W3C//DTD SVG 20010904//EN"
 "http://www.w3.org/TR/2001/REC-SVG-20010904/DTD/svg10.dtd">
<svg version="1.0" xmlns="http://www.w3.org/2000/svg"
 width="271.000000pt" height="142.000000pt" viewBox="0 0 271.000000 142.000000"
 preserveAspectRatio="xMidYMid meet">
<metadata>
Created by potrace 1.16, written by Peter Selinger 2001-2019
</metadata>
<g transform="translate(0.000000,142.000000) scale(0.100000,-0.100000)"
fill="#000000" stroke="none">
<path d="M0 1401 c0 -15 10 -19 47 -24 58 -6 88 -39 103 -113 7 -34 10 -232 8
-580 -3 -481 -5 -532 -20 -561 -23 -41 -53 -62 -100 -70 -28 -4 -38 -10 -38
-24 0 -18 14 -19 330 -19 323 0 330 0 330 20 0 15 -7 20 -25 20 -52 0 -91 26
-116 76 -22 45 -24 64 -27 227 l-4 177 110 0 c201 0 353 51 455 154 196 196
158 554 -73 680 -98 54 -120 56 -567 56 -397 0 -413 -1 -413 -19z m579 -21
c163 -27 261 -163 261 -365 0 -137 -42 -254 -123 -342 -47 -52 -144 -103 -194
-103 l-33 0 0 410 c0 321 3 410 13 410 6 0 41 -5 76 -10z"/>
<path d="M1520 1401 c0 -15 10 -19 47 -24 55 -6 86 -35 102 -95 12 -40 16
-1076 5 -1131 -9 -46 -58 -89 -111 -97 -33 -5 -43 -11 -43 -25 0 -18 18 -19
580 -19 319 0 580 3 580 8 0 4 7 68 15 142 19 175 20 270 2 270 -9 0 -18 -27
-26 -82 -15 -96 -43 -177 -77 -217 -13 -16 -47 -39 -76 -52 -49 -22 -68 -24
-275 -27 l-223 -4 0 594 c0 326 5 611 10 633 12 55 67 105 115 105 28 0 35 4
35 20 0 20 -7 20 -330 20 -316 0 -330 -1 -330 -19z"/>
<path d="M1287 255 c-70 -36 -92 -107 -57 -180 26 -53 61 -75 122 -75 54 0
100 27 121 73 22 45 21 72 -2 124 -31 67 -116 94 -184 58z"/>
</g>
</svg>
